<svg width="308" height="294" viewBox="0 0 308 294" fill="none" xmlns="http://www.w3.org/2000/svg">
<g filter="url(#filter0_d_701_535)">
<path d="M57.3549 285.683C67.9179 253.165 78.3937 220.908 88.9131 188.651C89.9607 185.465 90.8337 182.191 92.0995 179.048C92.8416 177.128 92.0122 176.342 90.6591 175.338C66.6958 157.966 42.7324 140.55 18.7691 123.134C12.6582 118.725 6.59101 114.273 0 109.472H114.622C126.451 73.1122 138.193 36.9271 150.196 0C152.161 6.06722 153.907 11.3924 155.653 16.7176C165.386 46.6608 175.12 76.6041 184.766 106.591C185.509 108.861 186.512 109.428 188.782 109.428C224.793 109.341 260.803 109.385 296.814 109.385C297.818 109.385 298.778 109.385 300 109.385C299.52 110.476 298.647 110.781 297.992 111.305C268.66 132.606 239.328 153.95 209.952 175.207C208.162 176.517 207.857 177.521 208.555 179.616C219.817 213.968 230.947 248.32 242.078 282.671C242.383 283.588 243.038 284.461 242.514 285.683C234.57 279.921 226.713 274.203 218.856 268.485C196.683 252.379 174.465 236.272 152.335 220.079C150.72 218.9 149.716 218.944 148.145 220.079C118.769 241.51 89.3496 262.855 59.9302 284.199C59.2318 284.723 58.6207 285.465 57.3985 285.639L57.3549 285.683ZM85.203 248.058C85.945 247.577 86.7743 247.141 87.4727 246.617C107.639 231.951 127.848 217.329 147.97 202.575C149.673 201.353 150.72 201.397 152.379 202.575C164.033 211.174 175.731 219.642 187.473 228.154C196.683 234.832 205.936 241.423 215.146 248.058C215.321 248.145 215.495 248.232 215.67 248.32C215.626 248.101 215.539 247.927 215.495 247.708C215.277 246.923 215.103 246.137 214.841 245.351C207.158 221.65 199.476 197.905 191.707 174.203C191.052 172.152 191.227 171.061 193.103 169.751C209.515 157.966 225.884 146.05 242.209 134.134C246.792 130.773 251.419 127.455 256.656 123.614H252.99C228.197 123.614 203.405 123.614 178.612 123.658C176.124 123.658 175.033 123.047 174.247 120.559C166.652 96.7263 158.883 72.9376 151.113 49.1052C150.895 48.3632 151.069 47.2283 149.847 46.9227C141.816 71.6718 133.741 96.3335 125.84 121.039C125.186 123.047 124.356 123.658 122.261 123.658C97.2065 123.57 72.1083 123.614 47.0537 123.658C46.1371 123.658 45.1768 123.396 44.1729 124.051C45.0022 124.662 45.6569 125.142 46.3117 125.622C66.6521 140.419 86.9926 155.216 107.377 169.926C108.992 171.104 109.341 172.065 108.686 173.941C106.94 178.743 105.5 183.632 103.928 188.477C97.5556 208.206 91.1829 227.979 84.7665 247.708C84.7665 247.927 84.5919 248.276 84.6792 248.363C84.9411 248.581 85.072 248.32 85.1593 248.101L85.203 248.058Z" fill="#2F81C4"/>
</g>
<path d="M193.278 217.504C182.453 209.691 171.628 201.878 160.759 194.065C157.879 191.969 154.954 190.005 152.161 187.779C150.677 186.601 149.716 186.644 148.189 187.779C135.312 197.251 122.348 206.636 109.385 216.02C108.643 216.544 107.857 216.98 107.115 217.46C106.984 217.33 106.897 217.242 106.766 217.111C110.738 204.715 114.71 192.319 118.682 179.922C119.86 176.212 120.995 172.415 122.348 168.748C123.003 167.046 122.523 166.216 121.126 165.213C107.726 155.566 94.4129 145.876 81.0563 136.142C80.6198 135.837 80.227 135.488 79.7468 135.095C80.4452 134.265 81.3182 134.702 82.0602 134.702C98.2104 134.702 114.361 134.615 130.467 134.702C132.649 134.702 133.61 134.134 134.264 131.996C139.24 116.282 144.391 100.612 149.498 84.942C149.629 84.5491 149.76 84.1999 150.153 83.1523C152.641 90.8782 154.954 97.9057 157.268 104.977C160.236 114.056 163.247 123.135 166.041 132.258C166.652 134.265 167.612 134.658 169.533 134.658C185.596 134.571 201.615 134.658 217.678 134.658C218.551 134.658 219.424 134.658 220.515 134.658C220.166 135.749 219.337 136.011 218.725 136.448C205.631 146.007 192.492 155.566 179.354 165.038C177.739 166.173 177.39 167.133 178.045 169.054C183.108 184.331 188.04 199.695 193.016 215.016C193.234 215.715 193.365 216.413 193.54 217.111C193.453 217.199 193.322 217.33 193.234 217.417L193.278 217.504Z" fill="#2F81C4"/>
<defs>
<filter id="filter0_d_701_535" x="0" y="0" width="308" height="293.684" filterUnits="userSpaceOnUse" color-interpolation-filters="sRGB">
<feFlood flood-opacity="0" result="BackgroundImageFix"/>
<feColorMatrix in="SourceAlpha" type="matrix" values="0 0 0 0 0 0 0 0 0 0 0 0 0 0 0 0 0 0 127 0" result="hardAlpha"/>
<feOffset dx="4" dy="4"/>
<feGaussianBlur stdDeviation="2"/>
<feComposite in2="hardAlpha" operator="out"/>
<feColorMatrix type="matrix" values="0 0 0 0 1 0 0 0 0 1 0 0 0 0 1 0 0 0 0.4 0"/>
<feBlend mode="normal" in2="BackgroundImageFix" result="effect1_dropShadow_701_535"/>
<feBlend mode="normal" in="SourceGraphic" in2="effect1_dropShadow_701_535" result="shape"/>
</filter>
</defs>
</svg>
