<svg id="Capa_1" data-name="Capa 1" xmlns="http://www.w3.org/2000/svg" viewBox="0 0 791.15 253.34"><path d="M701.5,404.91c8.68,4.92,19,8.85,29,12.7,8.44,3.24,16.42,6.3,23.21,9.82,27.83,14.4,68.22,37.6,97.55,72.67,4.89,5.86,9.1,13.42,13.55,21.42,6.69,12,13.6,24.47,23.3,31.24A17.46,17.46,0,0,0,898.21,556c12.49,0,25.63-13,35.22-22.44,1.88-1.85,3.66-3.61,5.28-5.11,4.44,2.71,7,7.44,7.32,13.4.45,9.2-4.46,19.21-11.94,24.33-9.62,6.6-21.65,8.43-33.28,10.2-4,.62-8.2,1.25-12.22,2.08-23,4.71-43.83,16.33-64,27.57-7.67,4.27-15.61,8.69-23.53,12.65A299.36,299.36,0,0,1,667.67,650,294.6,294.6,0,0,1,632.86,648a121.08,121.08,0,0,0,42.41-32.91l1.92-2.34-2.94.74a653.88,653.88,0,0,1-159.44,20c-48.79,0-96.17-5.78-140.8-17.18-47-12-90.78-30.2-130.12-54.11-7-4.26-14-8.8-20.85-13.19-18-11.57-36.45-23.49-56.48-31.67a162,162,0,0,0,58.83-2.61c8.27-1.91,16.49-4.52,24.44-7,7.42-2.35,15.09-4.78,22.77-6.64,16.41-4,33.54-5.49,50.11-7l2.55-.23-2-1.56L306.55,479.5l-14.3-11h.16c29.63,0,59.07-7,87.54-13.73,10.43-2.47,21.21-5,31.84-7.2,20.76-4.25,38.9-6.31,55.45-6.31,25.59,0,47,4.87,65.37,14.89l2.87,1.56-1.5-2.9a137.37,137.37,0,0,0-33.05-41.45,212,212,0,0,0,24,1.26c15.41,0,31.11-1.34,46.29-2.64,14.33-1.23,29.15-2.49,43.71-2.63h2c27.17,0,76.56,5.37,102.12,41.31l2.09,2.94-.28-3.6a77.91,77.91,0,0,0-19.38-45.09m-8.92-7.21a76.28,76.28,0,0,1,27.3,52.38C697.57,418.7,655.57,408.35,617,408.35h-2c-30,.28-60.09,5.27-90,5.27A206.23,206.23,0,0,1,497.64,412a135.56,135.56,0,0,1,35.45,43.32c-20.16-11-42.78-15-65.85-15-18.61,0-37.51,2.62-55.65,6.33-39.6,8.1-78.83,20.91-119.18,20.91-1.05,0-2.09,0-3.14,0l33.35,25.63c-16.86,1.5-33.8,3-50.26,7-15.92,3.85-31.24,10-47.2,13.68a160.82,160.82,0,0,1-69.25.7c31.76,10.5,58.88,31.23,87.46,48.6,81.23,49.35,176,71.43,271.44,71.43a656.11,656.11,0,0,0,159.68-20.08,120.11,120.11,0,0,1-45.3,34.09A294.85,294.85,0,0,0,667.67,651a300.26,300.26,0,0,0,133.81-31.45c28.75-14.4,55.81-33.68,87.31-40.14,15.65-3.21,32.69-3.4,45.87-12.43s17.91-32.1,3.91-39.8c-9.85,9-25.63,27.79-40.36,27.79a16.33,16.33,0,0,1-9.55-3.07c-15.77-11-24.17-37.54-36.66-52.48-26.38-31.56-61.64-54.19-97.85-72.92-18.31-9.48-45.86-15.94-61.57-28.84Z" transform="translate(-155.91 -397.7)"/></svg>